<svg width="348" height="63" viewBox="0 0 348 63" fill="none" xmlns="http://www.w3.org/2000/svg">
<path d="M100.752 50.576C98.864 50.576 97.232 50.272 95.856 49.664C94.48 49.056 93.424 48.192 92.688 47.072C91.952 45.92 91.584 44.56 91.584 42.992C91.584 41.52 91.92 40.224 92.592 39.104C93.264 37.952 94.288 36.992 95.664 36.224C97.072 35.456 98.816 34.912 100.896 34.592L108.912 33.296V38.576L102.192 39.776C101.168 39.968 100.384 40.304 99.84 40.784C99.296 41.232 99.024 41.888 99.024 42.752C99.024 43.552 99.328 44.176 99.936 44.624C100.544 45.072 101.296 45.296 102.192 45.296C103.376 45.296 104.416 45.04 105.312 44.528C106.208 44.016 106.896 43.328 107.376 42.464C107.888 41.568 108.144 40.592 108.144 39.536V32.72C108.144 31.728 107.744 30.896 106.944 30.224C106.176 29.552 105.12 29.216 103.776 29.216C102.496 29.216 101.36 29.568 100.368 30.272C99.408 30.976 98.704 31.904 98.256 33.056L92.496 30.32C93.008 28.848 93.824 27.584 94.944 26.528C96.064 25.472 97.408 24.656 98.976 24.08C100.544 23.504 102.256 23.216 104.112 23.216C106.32 23.216 108.272 23.616 109.968 24.416C111.664 25.216 112.976 26.336 113.904 27.776C114.864 29.184 115.344 30.832 115.344 32.72V50H108.624V45.776L110.256 45.488C109.488 46.64 108.64 47.6 107.712 48.368C106.784 49.104 105.744 49.648 104.592 50C103.44 50.384 102.16 50.576 100.752 50.576ZM130.032 50.576C127.92 50.576 126.112 50.128 124.608 49.232C123.136 48.304 122.016 47.024 121.248 45.392C120.48 43.76 120.096 41.856 120.096 39.68V23.792H127.296V39.104C127.296 40.096 127.488 40.976 127.872 41.744C128.288 42.48 128.864 43.056 129.6 43.472C130.336 43.888 131.168 44.096 132.096 44.096C133.056 44.096 133.888 43.888 134.592 43.472C135.328 43.056 135.888 42.48 136.272 41.744C136.688 40.976 136.896 40.096 136.896 39.104V23.792H144.096V50H137.376V44.816L137.76 45.968C137.152 47.536 136.16 48.704 134.784 49.472C133.44 50.208 131.856 50.576 130.032 50.576ZM161.983 50.288C158.815 50.288 156.351 49.44 154.591 47.744C152.863 46.016 151.999 43.616 151.999 40.544V30.032H147.583V23.792H147.823C149.167 23.792 150.191 23.456 150.895 22.784C151.631 22.112 151.999 21.104 151.999 19.76V17.84H159.199V23.792H165.343V30.032H159.199V40.064C159.199 40.96 159.359 41.712 159.679 42.32C159.999 42.896 160.495 43.328 161.167 43.616C161.839 43.904 162.671 44.048 163.663 44.048C163.887 44.048 164.143 44.032 164.431 44C164.719 43.968 165.023 43.936 165.343 43.904V50C164.863 50.064 164.319 50.128 163.711 50.192C163.103 50.256 162.527 50.288 161.983 50.288ZM182.57 50.576C179.978 50.576 177.61 49.984 175.466 48.8C173.354 47.616 171.658 46 170.378 43.952C169.13 41.872 168.506 39.52 168.506 36.896C168.506 34.24 169.13 31.888 170.378 29.84C171.658 27.792 173.354 26.176 175.466 24.992C177.61 23.808 179.978 23.216 182.57 23.216C185.162 23.216 187.514 23.808 189.626 24.992C191.738 26.176 193.418 27.792 194.666 29.84C195.946 31.888 196.586 34.24 196.586 36.896C196.586 39.52 195.946 41.872 194.666 43.952C193.418 46 191.738 47.616 189.626 48.8C187.514 49.984 185.162 50.576 182.57 50.576ZM182.57 44.096C183.882 44.096 185.018 43.792 185.978 43.184C186.97 42.576 187.738 41.728 188.282 40.64C188.858 39.552 189.146 38.304 189.146 36.896C189.146 35.488 188.858 34.256 188.282 33.2C187.738 32.112 186.97 31.264 185.978 30.656C185.018 30.016 183.882 29.696 182.57 29.696C181.258 29.696 180.106 30.016 179.114 30.656C178.122 31.264 177.338 32.112 176.762 33.2C176.218 34.256 175.946 35.488 175.946 36.896C175.946 38.304 176.218 39.552 176.762 40.64C177.338 41.728 178.122 42.576 179.114 43.184C180.106 43.792 181.258 44.096 182.57 44.096ZM207.271 50L198.247 23.792H205.687L212.023 42.704L209.431 42.656L216.487 23.792H222.727L229.735 42.656L227.143 42.704L233.479 23.792H240.967L231.895 50H225.655L218.359 29.744H220.855L213.511 50H207.271ZM256.679 50.576C254.087 50.576 251.719 49.984 249.575 48.8C247.463 47.616 245.767 46 244.487 43.952C243.239 41.872 242.615 39.52 242.615 36.896C242.615 34.24 243.239 31.888 244.487 29.84C245.767 27.792 247.463 26.176 249.575 24.992C251.719 23.808 254.087 23.216 256.679 23.216C259.271 23.216 261.623 23.808 263.735 24.992C265.847 26.176 267.527 27.792 268.775 29.84C270.055 31.888 270.695 34.24 270.695 36.896C270.695 39.52 270.055 41.872 268.775 43.952C267.527 46 265.847 47.616 263.735 48.8C261.623 49.984 259.271 50.576 256.679 50.576ZM256.679 44.096C257.991 44.096 259.127 43.792 260.087 43.184C261.079 42.576 261.847 41.728 262.391 40.64C262.967 39.552 263.255 38.304 263.255 36.896C263.255 35.488 262.967 34.256 262.391 33.2C261.847 32.112 261.079 31.264 260.087 30.656C259.127 30.016 257.991 29.696 256.679 29.696C255.367 29.696 254.215 30.016 253.223 30.656C252.231 31.264 251.447 32.112 250.871 33.2C250.327 34.256 250.055 35.488 250.055 36.896C250.055 38.304 250.327 39.552 250.871 40.64C251.447 41.728 252.231 42.576 253.223 43.184C254.215 43.792 255.367 44.096 256.679 44.096ZM274.937 50V23.792H281.657V30.08L281.177 29.168C281.753 26.96 282.697 25.472 284.009 24.704C285.353 23.904 286.937 23.504 288.761 23.504H290.297V29.744H288.041C286.281 29.744 284.857 30.288 283.769 31.376C282.681 32.432 282.137 33.936 282.137 35.888V50H274.937ZM307.014 50.288C303.846 50.288 301.382 49.44 299.622 47.744C297.894 46.016 297.03 43.616 297.03 40.544V30.032H292.614V23.792H292.854C294.198 23.792 295.222 23.456 295.926 22.784C296.662 22.112 297.03 21.104 297.03 19.76V17.84H304.23V23.792H310.374V30.032H304.23V40.064C304.23 40.96 304.39 41.712 304.71 42.32C305.03 42.896 305.526 43.328 306.198 43.616C306.87 43.904 307.702 44.048 308.694 44.048C308.918 44.048 309.174 44.032 309.462 44C309.75 43.968 310.054 43.936 310.374 43.904V50C309.894 50.064 309.35 50.128 308.742 50.192C308.134 50.256 307.558 50.288 307.014 50.288ZM314.593 50V13.664H321.793V28.976L320.929 27.824C321.537 26.256 322.513 25.104 323.857 24.368C325.233 23.6 326.833 23.216 328.657 23.216C330.641 23.216 332.369 23.632 333.841 24.464C335.345 25.296 336.513 26.464 337.345 27.968C338.177 29.44 338.593 31.168 338.593 33.152V50H331.393V34.688C331.393 33.664 331.185 32.784 330.769 32.048C330.385 31.312 329.825 30.736 329.089 30.32C328.385 29.904 327.553 29.696 326.593 29.696C325.665 29.696 324.833 29.904 324.097 30.32C323.361 30.736 322.785 31.312 322.369 32.048C321.985 32.784 321.793 33.664 321.793 34.688V50H314.593Z" fill="white"/>
<path d="M27.0812 41.4887C27.0881 41.2471 27.0853 41.0938 27.0479 40.9385C26.9665 40.6039 27.0751 40.32 27.3293 40.0968C27.4471 39.9946 27.5754 39.9051 27.7119 39.8296C27.9046 39.7219 28.1051 39.6263 28.306 39.5356C32.2877 37.7061 36.2696 35.8771 40.2518 34.0486C44.587 32.0537 48.9207 30.0558 53.2529 28.055C53.7368 27.8317 54.2174 27.6004 54.7005 27.3755C54.818 27.3206 54.9392 27.2722 55.0603 27.2267C55.1463 27.1945 55.2389 27.184 55.3298 27.196C55.4208 27.2081 55.5074 27.2423 55.5821 27.2958C55.6763 27.3648 55.7661 27.4398 55.8508 27.5202C56.0972 27.7321 56.3351 27.9553 56.5913 28.1546C57.324 28.7222 58.167 29.1307 59.0664 29.3541C59.1164 29.3671 59.1689 29.3728 59.2189 29.3867C59.4727 29.4547 59.6925 29.614 59.8362 29.8339C59.8724 29.888 59.9049 29.9446 59.9378 30.0003C60.7795 31.4206 61.8173 32.684 63.0095 33.8225C63.5943 34.3785 64.2082 34.9029 64.8487 35.3938C64.9414 35.4649 65.0341 35.5365 65.1235 35.6117C65.1943 35.6697 65.2509 35.7432 65.289 35.8264C65.3097 35.8671 65.3219 35.9115 65.3248 35.957C65.3277 36.0025 65.3214 36.0481 65.3061 36.0911C65.2843 36.1522 65.2585 36.2119 65.2289 36.2696C65.1966 36.3257 65.1613 36.38 65.1231 36.4323C63.9968 38.0889 62.87 39.7452 61.7428 41.4012C61.6843 41.487 61.6209 41.5708 61.5635 41.657C61.3238 41.9998 61.0053 42.2801 60.6348 42.4743C60.5096 42.5426 60.3782 42.6004 60.2485 42.6606C54.5948 45.2735 48.9409 47.8861 43.2869 50.4983C35.0213 54.31 26.7607 58.1323 18.5051 61.9651C18.1627 62.1241 17.8195 62.2791 17.4478 62.3579C17.1546 62.4224 16.8517 62.4296 16.5557 62.3791C16.2206 62.3164 15.9103 62.1596 15.6611 61.9269C15.4664 61.7535 15.3 61.5507 15.1679 61.3259C15.0504 61.1226 14.9398 60.9165 14.8426 60.7042C13.4601 57.6756 12.0794 54.6466 10.7007 51.6169C10.647 51.4986 10.5954 51.379 10.534 51.2644C10.4904 51.1847 10.4395 51.1093 10.3819 51.0391C10.3407 50.9882 10.2877 50.9481 10.2274 50.9223C10.1672 50.8966 10.1015 50.886 10.0363 50.8915C9.95854 50.8965 9.88162 50.9101 9.80692 50.9322C9.7317 50.9525 9.66054 50.9858 9.58734 51.0135C9.31003 51.1172 9.07621 51.0363 8.87656 50.8362C8.81219 50.7719 8.75741 50.6986 8.71391 50.6186C8.53437 50.3018 8.38201 49.9703 8.25849 49.6277C8.21528 49.505 8.19248 49.376 8.19099 49.2459C8.18942 49.1012 8.24241 48.9612 8.33941 48.8539C8.43367 48.7455 8.54695 48.6552 8.67366 48.5876C8.89079 48.4704 9.10956 48.3541 9.3332 48.2509C10.1127 47.8914 10.8951 47.5389 11.675 47.181C12.502 46.8012 13.3279 46.4178 14.1554 46.0368C14.2733 45.9827 14.3908 45.9254 14.5128 45.8819C14.7641 45.7924 15.0008 45.8225 15.2085 45.9977C15.3171 46.09 15.418 46.1921 15.52 46.2925C16.2312 47.004 17.1015 47.536 18.059 47.8446C19.0024 48.1524 20.0017 48.2496 20.9867 48.1293C21.4904 48.07 21.9872 47.9622 22.4701 47.8072C23.517 47.4719 24.4543 46.8611 25.1839 46.0388C26.0888 45.0396 26.6999 43.8097 26.9495 42.4849C27.0206 42.1279 27.054 41.766 27.0812 41.4887Z" fill="white"/>
<path d="M45.163 6.00152C45.4277 5.99664 45.7847 6.07877 46.1466 6.117C46.5346 6.15766 46.9221 6.20483 47.3096 6.24671C48.0079 6.32153 48.7062 6.39554 49.4045 6.46873C49.9864 6.53013 50.5683 6.59072 51.1502 6.65456C51.7194 6.71758 52.2887 6.78508 52.8552 6.85055C53.1398 6.88308 53.4244 6.91602 53.7091 6.94774C54.3941 7.02418 55.0791 7.10036 55.7642 7.17626C56.3456 7.23929 56.9279 7.29825 57.5094 7.36209C58.0909 7.42593 58.6719 7.4979 59.2534 7.56255C59.8349 7.62721 60.4176 7.68454 60.9991 7.74838C61.6326 7.81792 62.2657 7.88867 62.8984 7.9643C63.0397 7.98255 63.1794 8.01137 63.3164 8.05051C63.8252 8.18601 64.2649 8.50702 64.5489 8.95037C64.6346 9.08001 64.7103 9.21594 64.7754 9.357C65.2593 10.4083 65.7407 11.4605 66.2197 12.5136C66.2844 12.6555 66.3417 12.8003 66.3966 12.9467C66.4165 13.0083 66.4279 13.0723 66.4304 13.137C66.4329 13.1893 66.4164 13.2407 66.3839 13.2818C66.3515 13.3229 66.3053 13.3509 66.2539 13.3606C66.1899 13.371 66.1251 13.3758 66.0603 13.3749C65.9563 13.3721 65.8524 13.3638 65.7493 13.3501C64.7803 13.2126 63.8056 13.1874 62.8293 13.2057C62.1523 13.2179 61.4781 13.27 60.8051 13.3366C60.5075 13.3659 60.2094 13.394 59.913 13.4306C59.3579 13.4989 58.8033 13.5692 58.2495 13.6465C57.6574 13.7278 57.0654 13.8136 56.4749 13.9092C53.9539 14.3158 51.4694 14.8607 49.0544 15.6983C48.7478 15.8053 48.4412 15.913 48.1367 16.0269C47.7578 16.1649 47.388 16.3265 47.0294 16.5108C46.8455 16.6093 46.6491 16.6823 46.4455 16.7279C46.0926 16.8031 45.7465 16.7629 45.4029 16.6787C45.2512 16.6421 45.1012 16.5974 44.9532 16.549C43.9409 16.2142 42.9088 15.9426 41.8628 15.7357C41.2765 15.6199 40.6836 15.5324 40.0916 15.4544C38.8095 15.2917 37.5237 15.2673 36.2355 15.3198C35.7415 15.3397 35.2503 15.3946 34.7595 15.4544C34.0499 15.5423 33.3452 15.6664 32.6483 15.826C31.3421 16.1247 30.0663 16.5437 28.8374 17.0776C28.2766 17.3216 27.7159 17.5656 27.1661 17.8303C25.3526 18.7094 23.5203 19.5483 21.6856 20.3819C20.9281 20.7263 20.1783 21.0865 19.4256 21.4419C18.2017 22.0201 17.1237 22.8049 16.162 23.754C15.7452 24.1656 15.3516 24.6 14.9828 25.0552C14.3176 25.8728 13.7097 26.7354 13.1636 27.6369C12.6024 28.564 12.1445 29.5383 11.8347 30.5792C11.716 30.9785 11.605 31.3803 11.5501 31.7934C11.4805 32.3342 11.1939 32.7323 10.7706 33.0478C10.6669 33.1255 10.5546 33.1926 10.4453 33.263C9.2941 33.9977 8.12017 34.6951 6.94827 35.3969C6.64683 35.5775 6.34592 35.7586 6.04556 35.9402C5.95651 35.9939 5.86665 36.0463 5.78166 36.1061C5.70588 36.1567 5.63508 36.2145 5.57022 36.2785C5.37219 36.4818 5.3669 36.6632 5.5446 36.8628C5.6324 36.9586 5.73075 37.0441 5.83778 37.1178C6.02726 37.2552 6.22529 37.3805 6.41722 37.5142C6.60915 37.648 6.80351 37.7802 6.9865 37.9257C7.1068 38.0245 7.21848 38.1333 7.32034 38.251C7.40509 38.3504 7.46799 38.4665 7.50494 38.5918C7.5822 38.8358 7.53422 39.0541 7.39231 39.2574C7.31774 39.3648 7.22316 39.4567 7.11377 39.5283C6.75339 39.7615 6.35744 39.9345 5.94147 40.0406C5.71986 40.0983 5.53037 40.0166 5.38602 39.8409C5.32874 39.7703 5.27772 39.6948 5.23353 39.6153C5.1762 39.5136 5.12577 39.4075 5.07657 39.3014C4.9619 39.0537 4.85008 38.8045 4.73663 38.556C3.3335 35.4808 1.92956 32.4058 0.524799 29.3309C0.325729 28.8931 0.163466 28.4395 0.0396943 27.9748C-0.0110795 27.7861 -0.013178 27.5875 0.0335949 27.3978C0.14712 26.897 0.440756 26.4555 0.858639 26.1572C1.05944 26.0129 1.27427 25.8892 1.49989 25.7879C2.12338 25.4973 2.7481 25.2067 3.37403 24.9161C10.2899 21.7195 17.206 18.5234 24.1221 15.3279C29.3025 12.935 34.4846 10.5445 39.6683 8.15623C40.4242 7.80775 41.1854 7.47228 41.9417 7.12502C42.5443 6.84852 43.1446 6.567 43.7427 6.28046C44.2351 6.0434 44.5258 5.98972 45.163 6.00152Z" fill="white"/>
<path d="M77.3245 38.2076C76.2798 38.223 75.2507 38.062 74.2492 37.7717C71.2015 36.8897 68.4189 35.4913 65.9808 33.4428C64.1689 31.9203 62.6916 30.1178 61.5197 28.0635C61.0968 27.3304 60.7724 26.5449 60.5548 25.727C60.342 24.893 60.2778 24.028 60.3653 23.1718C60.4071 22.7572 60.4959 22.3488 60.63 21.9543C60.7817 21.4981 60.9387 21.0431 61.0907 20.5869C61.1233 20.4893 61.1456 20.3884 61.1721 20.2884C61.1721 20.2807 61.1594 20.2656 61.1489 20.2587C61.1438 20.2553 61.1381 20.2529 61.1321 20.2517C61.1261 20.2505 61.1199 20.2505 61.1139 20.2518C61.0772 20.2626 61.0416 20.277 61.0078 20.2949C60.6369 20.512 60.2924 20.7712 59.981 21.0675C59.2308 21.7803 58.7677 22.6533 58.5652 23.6626C58.4253 24.3391 58.3861 25.0326 58.4489 25.7205C58.4664 25.9015 58.4696 26.084 58.4778 26.2658C58.4778 26.3065 58.4009 26.3528 58.3558 26.3394C58.3303 26.3354 58.3057 26.3276 58.2826 26.3162C57.5039 25.7579 56.9037 25.0557 56.5422 24.1611C56.3444 23.6782 56.2388 23.1625 56.2307 22.6407C56.2142 21.9864 56.3598 21.3381 56.6544 20.7536C57.2644 19.5613 58.1996 18.7444 59.4829 18.3411C60.3271 18.0751 61.1741 18.0885 62.017 18.3545C62.7542 18.5836 63.4183 19.0023 63.9429 19.5686C64.4676 20.1349 64.8343 20.829 65.0065 21.5815C65.2668 22.7371 65.0793 23.8297 64.4828 24.852C64.3418 25.087 64.1746 25.3053 63.9843 25.5026C63.8151 25.6823 63.6382 25.8555 63.4666 26.0312C63.3925 26.1041 63.3232 26.1818 63.2593 26.2638C63.1328 26.4345 63.1068 26.6297 63.1975 26.818C63.3951 27.2275 63.5907 27.6398 63.8513 28.0151C63.9105 28.1002 63.9787 28.1787 64.0546 28.2493C64.1117 28.3037 64.1836 28.3401 64.2612 28.354C64.3389 28.3679 64.4189 28.3586 64.4913 28.3274C64.6362 28.268 64.771 28.1867 64.8911 28.0863C65.2729 27.7923 65.6206 27.4567 65.928 27.0856C67.0505 25.71 67.6202 23.9656 67.526 22.1926C67.4971 21.6727 67.4056 21.1581 67.2536 20.6601C67.2157 20.5356 67.1722 20.412 67.1474 20.2847C67.071 19.8956 67.1625 19.6911 67.5183 19.5231C67.894 19.3454 68.2774 19.1828 68.665 19.0319C69.0073 18.899 69.1529 18.9665 69.3245 19.3007C69.3652 19.382 69.4022 19.4654 69.44 19.5479C70.1521 21.1096 70.8639 22.6715 71.5752 24.2335C71.6455 24.3872 71.7142 24.5417 71.7785 24.6983C71.8831 24.951 71.95 25.2177 71.9769 25.49C72.022 25.933 71.9403 26.3797 71.7415 26.7781C71.6559 26.9534 71.5563 27.1214 71.4438 27.2807C70.5493 28.5279 69.6953 29.8047 68.8272 31.0701C68.6575 31.3165 68.4871 31.5625 68.3161 31.8081C68.24 31.9135 68.1777 32.0281 68.1307 32.1493C68.1056 32.2162 68.0974 32.2883 68.1066 32.3591C68.1158 32.43 68.1422 32.4976 68.1835 32.5559C68.212 32.5996 68.246 32.6394 68.2848 32.6742C68.3422 32.7269 68.4029 32.7759 68.4665 32.821C69.6949 33.681 70.9791 34.4426 72.3632 35.0282C73.3923 35.4683 74.4693 35.7869 75.5723 35.9773C76.3158 36.1094 77.0711 36.1639 77.8258 36.1399C78.3723 36.1188 78.9168 36.0769 79.4454 35.9203C79.9099 35.7895 80.3454 35.5721 80.7291 35.2795C81.3391 34.8049 81.7181 34.1816 81.8905 33.435C82.0125 32.9093 82.0125 32.3778 81.9271 31.8455C81.8169 31.1465 81.5892 30.4837 81.3135 29.8364C80.9594 29.0104 80.5077 28.2298 79.9679 27.5113C78.5854 25.6555 76.9215 24.1009 74.9461 22.8863C74.5251 22.6302 74.0923 22.3936 73.6478 22.1768C73.4358 22.0771 73.2327 21.9596 73.0407 21.8254C72.6747 21.5603 72.3868 21.2257 72.2217 20.804C72.0131 20.2705 71.7744 19.7512 71.5305 19.2336C71.5099 19.1868 71.4962 19.1372 71.4898 19.0864C71.4873 19.0705 71.5187 19.0327 71.5305 19.034C71.7899 19.0592 72.0432 19.128 72.2799 19.2373C73.0988 19.6032 73.9064 19.9924 74.696 20.4214C75.3019 20.751 75.8941 21.1034 76.4726 21.4786C78.1259 22.5466 79.6086 23.858 80.8707 25.3684C81.3041 25.888 81.7246 26.4175 82.1052 26.9778C82.6407 27.7663 83.0969 28.5966 83.4247 29.4936C83.6897 30.2148 83.8649 30.966 83.9464 31.73C83.9896 32.1048 84.0068 32.4821 83.9976 32.8592C83.9843 33.3932 83.8996 33.923 83.7459 34.4345C83.4161 35.5056 82.7834 36.3558 81.8575 36.9877C81.3275 37.3435 80.747 37.6176 80.1355 37.801C79.2261 38.0852 78.2771 38.2225 77.3245 38.2076Z" fill="white"/>
<path d="M41.409 18.8606C41.3875 18.9013 41.3781 18.9419 41.3513 18.9639C41.1315 19.1259 40.8957 19.2649 40.6474 19.3787C39.2286 20.0293 37.8114 20.6818 36.3958 21.3362C33.0788 22.8675 29.7618 24.3991 26.4448 25.931C26.3151 25.9912 26.185 26.0506 26.0508 26.1002C25.6689 26.2447 25.2457 26.234 24.8716 26.0705C24.8114 26.0453 24.7532 26.016 24.6951 25.9892C23.8233 25.5522 22.9516 25.1151 22.0801 24.6778C21.9056 24.5904 21.7332 24.4993 21.5608 24.4082C21.4436 24.3507 21.3391 24.2704 21.2534 24.172C21.0424 23.917 21.057 23.6356 21.3201 23.4185C21.4128 23.3474 21.514 23.2881 21.6214 23.242C21.9158 23.1042 22.2143 22.9749 22.5099 22.8403C23.9892 22.1673 25.466 21.489 26.9478 20.8218C28.4523 20.1435 29.9776 19.5084 31.5309 18.946C32.1306 18.7289 32.7357 18.5325 33.3607 18.4003C34.06 18.2489 34.7706 18.1557 35.4853 18.1218C36.1482 18.0913 36.8122 18.0962 37.4745 18.1364C37.9027 18.1641 38.3284 18.2177 38.755 18.2661C39.4019 18.3381 40.0399 18.4605 40.6783 18.5853C40.9352 18.6371 41.1819 18.73 41.409 18.8606Z" fill="white"/>
<path d="M20.1964 36.8484C21.7521 36.8952 23.0058 37.5226 23.9081 38.8071C24.3924 39.4984 24.6262 40.275 24.6493 41.1139C24.661 41.6097 24.582 42.1034 24.4163 42.5708C24.0382 43.6537 23.362 44.5039 22.3889 45.1135C21.9694 45.3775 21.504 45.5601 21.017 45.6518C20.8635 45.6806 20.7082 45.6979 20.5522 45.7035C18.9944 45.7539 17.7034 45.1887 16.7112 43.9867C16.0683 43.2076 15.7536 42.2992 15.7629 41.2822C15.7723 40.2311 16.0858 39.2849 16.7458 38.4643C17.4057 37.6438 18.2665 37.1399 19.3014 36.933C19.5965 36.8775 19.8961 36.8492 20.1964 36.8484Z" fill="white"/>
</svg>
