<svg width="42" height="44" viewBox="0 0 42 44" fill="none" xmlns="http://www.w3.org/2000/svg">
<path d="M21 22.0002C19.075 22.0002 17.4271 21.2821 16.0563 19.846C14.6854 18.4099 14 16.6835 14 14.6668C14 12.6502 14.6854 10.9238 16.0563 9.48766C17.4271 8.05155 19.075 7.3335 21 7.3335C22.925 7.3335 24.5729 8.05155 25.9438 9.48766C27.3146 10.9238 28 12.6502 28 14.6668C28 16.6835 27.3146 18.4099 25.9438 19.846C24.5729 21.2821 22.925 22.0002 21 22.0002ZM7 36.6668V31.5335C7 30.4946 7.25521 29.5397 7.76562 28.6689C8.27604 27.7981 8.95417 27.1335 9.8 26.6752C11.6083 25.7279 13.4458 25.0175 15.3125 24.5439C17.1792 24.0703 19.075 23.8335 21 23.8335C22.925 23.8335 24.8208 24.0703 26.6875 24.5439C28.5542 25.0175 30.3917 25.7279 32.2 26.6752C33.0458 27.1335 33.724 27.7981 34.2344 28.6689C34.7448 29.5397 35 30.4946 35 31.5335V36.6668H7ZM10.5 33.0002H31.5V31.5335C31.5 31.1974 31.4198 30.8918 31.2594 30.6168C31.099 30.3418 30.8875 30.1279 30.625 29.9752C29.05 29.1502 27.4604 28.5314 25.8563 28.1189C24.2521 27.7064 22.6333 27.5002 21 27.5002C19.3667 27.5002 17.7479 27.7064 16.1438 28.1189C14.5396 28.5314 12.95 29.1502 11.375 29.9752C11.1125 30.1279 10.901 30.3418 10.7406 30.6168C10.5802 30.8918 10.5 31.1974 10.5 31.5335V33.0002ZM21 18.3335C21.9625 18.3335 22.7865 17.9745 23.4719 17.2564C24.1573 16.5384 24.5 15.6752 24.5 14.6668C24.5 13.6585 24.1573 12.7953 23.4719 12.0772C22.7865 11.3592 21.9625 11.0002 21 11.0002C20.0375 11.0002 19.2135 11.3592 18.5281 12.0772C17.8427 12.7953 17.5 13.6585 17.5 14.6668C17.5 15.6752 17.8427 16.5384 18.5281 17.2564C19.2135 17.9745 20.0375 18.3335 21 18.3335Z" fill="#1D1B20"/>
</svg>
